# xmcd
#
# Track frame offsets: 
#        182
#        7242
#        45297
#        58392
#        71817
#        97587
#        119835
#        155292
#        183125
#        198457
#        226742
#        254612
#        281637
#
# Disc length: 4127 seconds
#
# Revision: 0
# Processed by: cddbd v1.5.2PL0 Copyright (c) Steve Scherf et al.
# Submitted via: ExactAudioCopy v0.99pb3
#
DISCID=b5101d0d
DTITLE=Various Artist - Rave and Cruise - Beyond The Horizon - Mixed By Tom Nov
DTITLE=y
DYEAR=1997
DGENRE=Electronic
TTITLE0=Tom Novy - Intro
TTITLE1=Tom Novy Meets Morgenroth - Moyonga
TTITLE2=Eddie Flashin' Fowlkes - Detroit To Africa
TTITLE3=Dj Jacq - Ghetto Groove
TTITLE4=Thor.S Project - Keep On Dancing
TTITLE5=Mo'funk - McD Factory
TTITLE6=Central Bass - Motherland
TTITLE7=Digivalley - The Man With The Magic Touch
TTITLE8=Felix Houser - Fixation
TTITLE9=Tobestar - Suburban Nights
TTITLE10=Formula 7 - Dimensions
TTITLE11=Romanto and Out Of The Drum - Fourty Shades Of Green
TTITLE12=Hell - Diese Momente Werden Nicht Verloren Sein, Wie Tränen I
TTITLE12=m Regen
EXTD=
EXTT0=
EXTT1=
EXTT2=
EXTT3=
EXTT4=
EXTT5=
EXTT6=
EXTT7=
EXTT8=
EXTT9=
EXTT10=
EXTT11=
EXTT12=
PLAYORDER=
